<svg height="512pt" viewBox="-65 0 512 512" width="512pt" xmlns="http://www.w3.org/2000/svg"><path d="m373.738281 0h-331.789062c-23.132813 0-41.949219 18.816406-41.949219 41.949219v429.203125c0 4.140625 3.355469 7.5 7.5 7.5s7.5-3.359375 7.5-7.5c.003906-14.25 11.597656-25.84375 25.84375-25.84375h332.894531c4.144531 0 7.5-3.355469 7.5-7.5v-430.308594c0-4.144531-3.355469-7.5-7.5-7.5zm0 0" fill="#ffd039"/><path d="m373.738281 410.808594h-331.789062c-23.132813 0-41.949219 18.816406-41.949219 41.949218v18.394532c0 4.140625 3.355469 7.5 7.5 7.5s7.5-3.359375 7.5-7.5c.003906-14.25 11.597656-25.84375 25.84375-25.84375h332.894531c4.144531 0 7.5-3.355469 7.5-7.5v-19.5c0-4.144532-3.355469-7.5-7.5-7.5zm0 0" fill="#ffae47"/><path d="m64.382812 0h-22.433593c-23.132813 0-41.949219 18.816406-41.949219 41.949219v429.203125c0 4.140625 3.355469 7.5 7.5 7.5s7.5-3.359375 7.5-7.5c0-.105469.007812-.207032.007812-.308594l.09375-1.886719c.007813-.152343.019532-.308593.035157-.453125l.058593-.457031c.03125-.277344.0625-.554687.109376-.859375l.074218-.410156c.046875-.28125.089844-.5625.148438-.84375.019531-.101563.046875-.203125.070312-.300782l.148438-.640624c.019531-.101563.042968-.203126.066406-.308594l.226562-.792969c.039063-.144531.078126-.289063.117188-.410156l.289062-.859375c.039063-.113282.074219-.230469.125-.367188.113282-.308594.238282-.613281.390626-.984375l.09375-.230469c.128906-.300781.265624-.59375.40625-.898437l.105468-.226563c.042969-.085937.085938-.167968.132813-.253906l.800781-1.484375c.078125-.140625.15625-.28125.238281-.417969.1875-.304687.382813-.601562.578125-.898437l.128906-.195313c.1875-.28125.382813-.550781.574219-.808593.050781-.070313.101563-.140625.15625-.21875.105469-.136719.21875-.277344.328125-.414063l.917969-1.105468c.09375-.113282.1875-.226563.332031-.378907l.394532-.414062c.140624-.148438.277343-.300781.421874-.445313.523438-.519531 1.101563-1.046875 1.71875-1.5625.035157-.03125.113282-.097656.175782-.148437.496094-.40625 1.042968-.816407 1.65625-1.246094l.269531-.195313c.296875-.199218.601563-.390624.910156-.582031l.191407-.121093c.644531-.390626 1.339843-.769532 2.132812-1.15625l.085938-.042969c.308593-.144531.621093-.285157.925781-.414063.042969-.019531.136719-.0625.210937-.09375.269532-.113281.539063-.214844.785156-.308594.109376-.042968.214844-.082031.351563-.136718l.796875-.273438c.101562-.035156.207031-.070312.308594-.105468.03125-.007813.0625-.015626.089844-.027344.777343-.238282 1.574218-.445313 2.371093-.613282.082031-.011718.1875-.03125.246094-.042968 1.664063-.328125 3.363281-.496094 5.050781-.496094h23.535156c4.144532 0 7.5-3.355469 7.5-7.5v-430.3125c0-4.144531-3.355468-7.5-7.5-7.5zm0 0" fill="#e93234"/><path d="m7.5 478.652344c4.144531 0 7.5-3.359375 7.5-7.5 0-.105469.007812-.207032.007812-.308594l.09375-1.886719c.007813-.152343.019532-.308593.035157-.453125l.058593-.457031c.03125-.277344.0625-.554687.109376-.859375l.074218-.410156c.046875-.28125.089844-.5625.148438-.84375.019531-.101563.046875-.203125.070312-.300782l.148438-.640624c.019531-.101563.042968-.203126.066406-.308594l.226562-.792969c.039063-.144531.078126-.289063.117188-.410156l.289062-.859375c.039063-.113282.074219-.230469.125-.367188.113282-.308594.238282-.613281.390626-.984375l.09375-.230469c.128906-.300781.265624-.59375.40625-.898437l.105468-.226563c.042969-.085937.085938-.167968.132813-.253906l.800781-1.484375c.078125-.140625.15625-.28125.238281-.417969.1875-.304687.382813-.601562.578125-.898437l.128906-.195313c.1875-.28125.382813-.550781.574219-.808593.050781-.070313.101563-.140625.15625-.21875.105469-.136719.21875-.277344.328125-.414063l.917969-1.105468c.09375-.113282.1875-.226563.332031-.378907l.394532-.414062c.140624-.148438.277343-.300781.421874-.445313.523438-.519531 1.101563-1.046875 1.71875-1.5625.035157-.03125.113282-.097656.175782-.148437.496094-.40625 1.042968-.816407 1.65625-1.246094l.269531-.195313c.296875-.199218.601563-.390624.910156-.582031l.191407-.121093c.644531-.390626 1.339843-.769532 2.132812-1.15625l.085938-.042969c.308593-.144531.621093-.285157.925781-.414063.042969-.019531.136719-.0625.210937-.09375.269532-.113281.539063-.214844.785156-.308594.109376-.042968.214844-.082031.351563-.136718l.796875-.273438c.101562-.035156.207031-.070312.308594-.105468.03125-.007813.0625-.015626.089844-.027344.777343-.238282 1.574218-.445313 2.371093-.613282.082031-.011718.1875-.03125.246094-.042968 1.664063-.328125 3.363281-.496094 5.050781-.496094h23.535156c4.144532 0 7.5-3.355469 7.5-7.5v-27.003906h-29.933593c-23.132813 0-41.949219 18.816406-41.949219 41.949218v18.394532c0 4.140625 3.355469 7.5 7.5 7.5zm0 0" fill="#bf161c"/><path d="m245.257812 359.445312 16.039063-17.675781c2.785156-3.066406 2.554687-7.808593-.511719-10.59375-3.070312-2.785156-7.8125-2.554687-10.597656.515625l-15.058594 16.59375-20.152344-22.207031c7.605469-4.9375 12.652344-13.5 12.652344-23.222656 0-15.261719-12.414062-27.675781-27.675781-27.675781h-20.175781c-4.144532 0-7.5 3.355468-7.5 7.5v70.679687c0 4.144531 3.355468 7.5 7.5 7.5 4.140625 0 7.5-3.355469 7.5-7.5v-22.832031h11.484375l26.238281 28.917968-15.910156 17.53125c-2.78125 3.066407-2.550782 7.8125.515625 10.59375 1.4375 1.304688 3.242187 1.949219 5.039062 1.949219 2.039063 0 4.074219-.832031 5.554688-2.460937l14.929687-16.453125 14.933594 16.453125c1.480469 1.632812 3.511719 2.460937 5.554688 2.460937 1.796874 0 3.605468-.644531 5.039062-1.949219 3.066406-2.78125 3.296875-7.527343.515625-10.59375zm-57.980468-69.265624h12.675781c6.988281 0 12.675781 5.683593 12.675781 12.675781 0 6.988281-5.6875 12.671875-12.675781 12.671875h-12.675781zm0 0" fill="#353535"/><path d="m250.867188 188.390625 42.890624-42.835937c18.28125-18.257813 18.300782-47.984376.042969-66.265626-18.257812-18.277343-47.984375-18.300781-66.261719-.042968l-42.898437 42.839844c-.011719.015624-.023437.03125-.035156.042968zm0 0" fill="#e93234"/><path d="m184.605469 122.128906c.011719-.015625.023437-.03125.039062-.042968l-42.898437 42.839843c-8.855469 8.84375-13.734375 20.605469-13.742188 33.121094-.011718 12.515625 4.855469 24.285156 13.699219 33.140625s20.609375 13.738281 33.125 13.746094h.027344c12.503906 0 24.261719-4.867188 33.109375-13.703125l42.898437-42.835938c0-.003906 0-.003906 0-.003906zm0 0" fill="#f9f1ef"/><path d="m293.800781 79.289062c-4.242187-4.246093-9.109375-7.496093-14.304687-9.769531 7.527344 17.175781 4.277344 37.972657-9.769532 52l-42.894531 42.835938 24.035157 24.035156 42.890624-42.835937c18.28125-18.257813 18.300782-47.984376.042969-66.265626zm0 0" fill="#bf161c"/><path d="m250.90625 188.433594-24.03125-24.035156s0 .003906-.003906.003906l-42.894532 42.839844c-8.847656 8.835937-20.605468 13.699218-33.109374 13.699218-.011719 0-.019532 0-.03125 0-6.59375-.003906-12.976563-1.375-18.835938-3.953125 2.304688 5.242188 5.578125 10.066407 9.746094 14.242188 8.84375 8.855469 20.605468 13.738281 33.121094 13.746093h.03125c12.503906 0 24.261718-4.867187 33.109374-13.703124l42.894532-42.839844zm0 0" fill="#ccc"/><path d="m340.472656 430.308594h-299.628906c-22.519531 0-40.84375 18.324218-40.84375 40.847656 0 22.519531 18.324219 40.84375 40.84375 40.84375h299.628906zm0 0" fill="#fff2cc"/><path d="m10.355469 457.652344c-1.828125 4.128906-2.855469 8.695312-2.855469 13.503906 0 18.414062 14.929688 33.34375 33.34375 33.34375h299.628906v-27.003906h-299.628906c-13.609375 0-25.304688-8.15625-30.488281-19.84375zm0 0" fill="#ffe6a9"/><path d="m373.738281 430.308594h-33.265625v81.691406h33.265625c4.144531 0 7.5-3.355469 7.5-7.5v-66.691406c0-4.140625-3.355469-7.5-7.5-7.5zm0 0" fill="#ff8206"/><path d="m340.472656 463.652344h-229.722656c-4.144531 0-7.5 3.359375-7.5 7.503906 0 4.140625 3.355469 7.5 7.5 7.5h229.722656zm0 0" fill="#ffd039"/></svg>