<svg id="Capa_1" data-name="Capa 1" xmlns="http://www.w3.org/2000/svg" xmlns:xlink="http://www.w3.org/1999/xlink" viewBox="0 0 797.39 365.58"><defs><style>.cls-1{fill:#e93234;}.cls-2{fill:#353535;}.cls-3{fill:url(#Degradado_sin_nombre_3);}.cls-4{fill:#efb922;}.cls-5{fill:#ffd55f;}.cls-6{fill:url(#Degradado_sin_nombre_3-2);}.cls-7{fill:url(#Degradado_sin_nombre_3-3);}.cls-8{fill:url(#Degradado_sin_nombre_3-4);}.cls-9{fill:url(#Degradado_sin_nombre_3-5);}.cls-10{fill:url(#Degradado_sin_nombre_3-6);}</style><linearGradient id="Degradado_sin_nombre_3" x1="268.5" y1="159" x2="528.5" y2="159" gradientUnits="userSpaceOnUse"><stop offset="0" stop-color="#ffd039"/><stop offset="0.28" stop-color="#ffd042"/><stop offset="0.76" stop-color="#ffd05c"/><stop offset="0.99" stop-color="#ffd06b"/></linearGradient><linearGradient id="Degradado_sin_nombre_3-2" x1="382.2" y1="39.5" x2="414.2" y2="39.5" xlink:href="#Degradado_sin_nombre_3"/><linearGradient id="Degradado_sin_nombre_3-3" x1="-249.5" y1="160" x2="-217.5" y2="160" gradientTransform="translate(454 49)" xlink:href="#Degradado_sin_nombre_3"/><linearGradient id="Degradado_sin_nombre_3-4" x1="-249.5" y1="517" x2="-217.5" y2="517" gradientTransform="translate(811 -308)" xlink:href="#Degradado_sin_nombre_3"/><linearGradient id="Degradado_sin_nombre_3-5" x1="38.37" y1="348.66" x2="70.37" y2="348.66" gradientTransform="translate(462.13 -254.66)" xlink:href="#Degradado_sin_nombre_3"/><linearGradient id="Degradado_sin_nombre_3-6" x1="531.22" y1="458.26" x2="563.22" y2="458.26" gradientTransform="translate(-271.72 -362.26)" xlink:href="#Degradado_sin_nombre_3"/></defs><title>pharmacylogo</title><path class="cls-1" d="M2.93,346.11A9.64,9.64,0,0,1,.3,339V251.23a9,9,0,0,1,2.48-6.75,9.38,9.38,0,0,1,6.82-2.4H46.5q16.95,0,26.4,8.48t9.45,23.77q0,15.3-9.45,23.85t-26.4,8.55H19.65V339A9.64,9.64,0,0,1,17,346.11a9.68,9.68,0,0,1-7.13,2.62A9.45,9.45,0,0,1,2.93,346.11ZM44.1,291.88q19.95,0,19.95-17.4T44.1,257.08H19.65v34.8Z" transform="translate(-0.3 -10)"/><path class="cls-1" d="M166.35,302.83v36.9a8.76,8.76,0,0,1-2.47,6.6,9.4,9.4,0,0,1-6.83,2.4,9.66,9.66,0,0,1-6.9-2.4,8.63,8.63,0,0,1-2.55-6.6v-36.9q0-7.95-3.22-11.62t-10.13-3.68q-8.1,0-13,5.1t-4.88,13.65v33.45a8.63,8.63,0,0,1-2.55,6.6,9.66,9.66,0,0,1-6.9,2.4,9.38,9.38,0,0,1-6.82-2.4,8.77,8.77,0,0,1-2.48-6.6V250a8.14,8.14,0,0,1,2.63-6.3,9.71,9.71,0,0,1,6.82-2.4,9.83,9.83,0,0,1,6.75,2.25,7.78,7.78,0,0,1,2.55,6.15v35a24.56,24.56,0,0,1,10-8.92,31.57,31.57,0,0,1,14.17-3.08Q166.35,272.68,166.35,302.83Z" transform="translate(-0.3 -10)"/><path class="cls-1" d="M239.93,280.26q7.42,7.58,7.42,23v36.6a8.47,8.47,0,0,1-2.4,6.38,9.08,9.08,0,0,1-6.6,2.32,8.76,8.76,0,0,1-6.37-2.4,8.38,8.38,0,0,1-2.48-6.3v-3.3a19.56,19.56,0,0,1-8,9.15A24.11,24.11,0,0,1,208.8,349a29.43,29.43,0,0,1-13.35-3,23.75,23.75,0,0,1-9.45-8.25,20.85,20.85,0,0,1-3.45-11.7q0-8.1,4.13-12.75t13.42-6.75q9.3-2.1,25.65-2.1h3.75V301q0-7.35-3.15-10.72t-10.2-3.38a32.38,32.38,0,0,0-8.85,1.28q-4.5,1.28-10.65,3.67-3.9,2-5.7,1.95a5.63,5.63,0,0,1-4.42-1.95,7.42,7.42,0,0,1-1.73-5.1,7.67,7.67,0,0,1,1.28-4.42,12.08,12.08,0,0,1,4.27-3.53,48.93,48.93,0,0,1,12.53-4.5,64.58,64.58,0,0,1,14.32-1.65Q232.5,272.68,239.93,280.26Zm-15.15,50.25q4.72-5,4.72-13v-3.15h-2.7a103.48,103.48,0,0,0-15.6.9q-5.55.9-7.95,3.15a8,8,0,0,0-2.4,6.15,10.19,10.19,0,0,0,3.38,7.88,11.89,11.89,0,0,0,8.32,3.07A16,16,0,0,0,224.78,330.51Z" transform="translate(-0.3 -10)"/><path class="cls-1" d="M313.5,274.63q2.25,2,2.25,5.85t-1.95,6q-1.95,1.95-7.05,2.55l-4.5.45q-8.85.9-13,6a19.57,19.57,0,0,0-4.13,12.75v31.5a8.34,8.34,0,0,1-2.7,6.68,10,10,0,0,1-6.75,2.32,9.66,9.66,0,0,1-6.67-2.32,8.43,8.43,0,0,1-2.63-6.68V281.68a8,8,0,0,1,2.63-6.45,9.64,9.64,0,0,1,6.52-2.25,9,9,0,0,1,6.3,2.18,8,8,0,0,1,2.4,6.22v6a22.21,22.21,0,0,1,8.48-10.2,26,26,0,0,1,12.52-4.05l2.1-.15A8.07,8.07,0,0,1,313.5,274.63Z" transform="translate(-0.3 -10)"/><path class="cls-1" d="M429.38,279.81q6.36,7.13,6.37,23v36.9a8.49,8.49,0,0,1-2.62,6.68,9.94,9.94,0,0,1-6.83,2.32,9.66,9.66,0,0,1-6.67-2.32,8.43,8.43,0,0,1-2.63-6.68v-36.9q0-8.25-2.93-11.77t-8.92-3.53a14.69,14.69,0,0,0-11.7,5q-4.35,5-4.35,13.72v33.45a8.46,8.46,0,0,1-2.63,6.68,9.68,9.68,0,0,1-6.67,2.32,10,10,0,0,1-6.75-2.32,8.34,8.34,0,0,1-2.7-6.68v-36.9q0-8.25-2.92-11.77t-8.93-3.53q-7.35,0-11.62,5t-4.28,13.72v33.45a8.34,8.34,0,0,1-2.7,6.68,10,10,0,0,1-6.75,2.32,9.7,9.7,0,0,1-6.68-2.32,8.45,8.45,0,0,1-2.62-6.68V281.68a7.92,7.92,0,0,1,2.7-6.45A10.19,10.19,0,0,1,333.3,273a9.34,9.34,0,0,1,6.38,2.18,7.87,7.87,0,0,1,2.47,6.22V285a23.46,23.46,0,0,1,9.23-9.15,27.23,27.23,0,0,1,13.27-3.15q16.5,0,22.05,13.8a24.79,24.79,0,0,1,9.75-10.05A28.41,28.41,0,0,1,411,272.68Q423,272.68,429.38,279.81Z" transform="translate(-0.3 -10)"/><path class="cls-1" d="M509.32,280.26q7.43,7.58,7.43,23v36.6a8.47,8.47,0,0,1-2.4,6.38,9.08,9.08,0,0,1-6.6,2.32,8.79,8.79,0,0,1-6.38-2.4,8.38,8.38,0,0,1-2.47-6.3v-3.3a19.58,19.58,0,0,1-8,9.15A24.05,24.05,0,0,1,478.2,349a29.43,29.43,0,0,1-13.35-3,23.75,23.75,0,0,1-9.45-8.25,20.85,20.85,0,0,1-3.45-11.7q0-8.1,4.12-12.75t13.43-6.75q9.3-2.1,25.65-2.1h3.75V301q0-7.35-3.15-10.72t-10.2-3.38a32.38,32.38,0,0,0-8.85,1.28q-4.5,1.28-10.65,3.67-3.9,2-5.7,1.95a5.65,5.65,0,0,1-4.43-1.95,7.41,7.41,0,0,1-1.72-5.1,7.66,7.66,0,0,1,1.27-4.42,12.13,12.13,0,0,1,4.28-3.53,48.85,48.85,0,0,1,12.52-4.5,64.67,64.67,0,0,1,14.33-1.65Q501.9,272.68,509.32,280.26Zm-15.15,50.25q4.72-5,4.73-13v-3.15h-2.7a103.48,103.48,0,0,0-15.6.9q-5.55.9-8,3.15a8,8,0,0,0-2.4,6.15,10.18,10.18,0,0,0,3.37,7.88,11.91,11.91,0,0,0,8.33,3.07A16,16,0,0,0,494.17,330.51Z" transform="translate(-0.3 -10)"/><path class="cls-2" d="M539.92,345.43a9,9,0,0,1-2.47-6.75V251.23a9,9,0,0,1,2.47-6.75,9.4,9.4,0,0,1,6.83-2.4h29.7q25.95,0,40.27,13.88t14.33,38.92q0,25.2-14.33,39.08t-40.27,13.87h-29.7A9.4,9.4,0,0,1,539.92,345.43Zm35.33-13.35q36.45,0,36.45-37.2,0-37-36.45-37.05H556.8v74.25Z" transform="translate(-0.3 -10)"/><path class="cls-2" d="M703.42,280.26q7.43,7.58,7.43,23v36.6a8.47,8.47,0,0,1-2.4,6.38,9.1,9.1,0,0,1-6.6,2.32,8.79,8.79,0,0,1-6.38-2.4,8.38,8.38,0,0,1-2.47-6.3v-3.3a19.58,19.58,0,0,1-8,9.15A24.05,24.05,0,0,1,672.3,349,29.43,29.43,0,0,1,659,346a23.75,23.75,0,0,1-9.45-8.25,20.85,20.85,0,0,1-3.45-11.7q0-8.1,4.12-12.75t13.43-6.75q9.3-2.1,25.65-2.1H693V301q0-7.35-3.15-10.72t-10.2-3.38a32.38,32.38,0,0,0-8.85,1.28q-4.5,1.28-10.65,3.67-3.9,2-5.7,1.95a5.65,5.65,0,0,1-4.43-1.95,7.41,7.41,0,0,1-1.72-5.1,7.66,7.66,0,0,1,1.27-4.42,12,12,0,0,1,4.28-3.53,48.85,48.85,0,0,1,12.52-4.5,64.67,64.67,0,0,1,14.33-1.65Q696,272.68,703.42,280.26Zm-15.15,50.25q4.72-5,4.73-13v-3.15h-2.7a103.39,103.39,0,0,0-15.6.9c-3.7.6-6.36,1.65-8,3.15a8,8,0,0,0-2.4,6.15,10.18,10.18,0,0,0,3.37,7.88,11.91,11.91,0,0,0,8.33,3.07A16,16,0,0,0,688.27,330.51Z" transform="translate(-0.3 -10)"/><path class="cls-2" d="M784.27,274.41a8.14,8.14,0,0,1,4.43-1.28,9.44,9.44,0,0,1,6.22,2.33,7.24,7.24,0,0,1,2.78,5.77,7.71,7.71,0,0,1-.9,3.45l-40.95,85.8c-1.71,3.4-4.35,5.1-8,5.1a9.28,9.28,0,0,1-6.08-2.17,6.82,6.82,0,0,1-2.62-5.48,9.69,9.69,0,0,1,.9-3.75l10.2-21.45-27.9-58.05a7.49,7.49,0,0,1-.75-3.45,7.31,7.31,0,0,1,2.92-5.85,10.24,10.24,0,0,1,6.68-2.4,8.84,8.84,0,0,1,4.65,1.28,8.55,8.55,0,0,1,3.3,4l21,46.35,20.85-46.2A8.6,8.6,0,0,1,784.27,274.41Z" transform="translate(-0.3 -10)"/><path class="cls-3" d="M398.5,94a130,130,0,0,0-130,130h260A130,130,0,0,0,398.5,94Z" transform="translate(-0.3 -10)"/><path class="cls-4" d="M422.5,180.65V224h4V180.65a19.5,19.5,0,0,0-19.5-19.5h0a18.85,18.85,0,0,0-2,.11A19.5,19.5,0,0,1,422.5,180.65Z" transform="translate(-0.3 -10)"/><path class="cls-5" d="M387.5,180.65A19.5,19.5,0,0,1,405,161.26a18.85,18.85,0,0,0-2-.11h0a19.5,19.5,0,0,0-19.5,19.5V224h4Z" transform="translate(-0.3 -10)"/><path class="cls-5" d="M387.5,180.65V224h35V180.65a17.59,17.59,0,1,0-35,0Z" transform="translate(-0.3 -10)"/><rect class="cls-6" x="382.2" width="32" height="79" rx="16"/><rect class="cls-7" x="204.5" y="169.5" width="32" height="79" rx="16" transform="translate(11.2 419.5) rotate(-90)"/><rect class="cls-8" x="561.5" y="169.5" width="32" height="79" rx="16" transform="translate(368.2 776.5) rotate(-90)"/><rect class="cls-9" x="500.5" y="54.5" width="32" height="79" rx="16" transform="translate(814.95 515.69) rotate(-135)"/><rect class="cls-10" x="259.5" y="56.5" width="32" height="79" rx="16" transform="translate(537.89 -40.93) rotate(135)"/></svg>