<svg height="512pt" viewBox="-24 0 512 512" width="512pt" xmlns="http://www.w3.org/2000/svg"><path d="m463.957031 443.207031v-435.699219c0-4.144531-3.359375-7.507812-7.507812-7.507812h-360.910157c-4.148437 0-7.507812 3.363281-7.507812 7.507812v440.949219c0 4.148438 3.359375 7.507813 7.507812 7.507813h248.148438c.164062 1.410156.390625 2.808594.652344 4.195312 4.164062 29.304688 29.34375 51.839844 59.796875 51.839844 33.363281 0 60.410156-27.050781 60.410156-60.414062 0-2.84375-.210937-5.640626-.589844-8.378907zm0 0" fill="#fff2cc"/><path d="m463.957031 443.207031v-435.699219c0-4.144531-3.359375-7.507812-7.507812-7.507812h-34.324219c4.148438 0 7.507812 3.363281 7.507812 7.507812v435.699219c.382813 2.738281.59375 5.535157.59375 8.378907 0 27.40625-18.25 50.53125-43.257812 57.925781 5.441406 1.613281 11.199219 2.488281 17.167969 2.488281 33.363281 0 60.410156-27.046875 60.410156-60.414062 0-2.84375-.210937-5.640626-.589844-8.378907zm0 0" fill="#ffe6a9"/><path d="m307.640625 171.3125 20.949219-23.082031c2.789062-3.070313 2.558594-7.820313-.515625-10.605469-3.070313-2.789062-7.816407-2.558594-10.605469.511719l-19.964844 22.003906-27.726562-30.550781c9.925781-5.566406 16.65625-16.1875 16.65625-28.355469 0-17.917969-14.578125-32.496094-32.496094-32.496094h-24.984375c-4.144531 0-7.507813 3.363281-7.507813 7.507813v87.535156c0 4.144531 3.363282 7.507812 7.507813 7.507812 4.148437 0 7.507813-3.363281 7.507813-7.507812v-30.054688h16.789062l34.113281 37.585938-20.789062 22.910156c-2.785157 3.070313-2.554688 7.816406.515625 10.605469 1.4375 1.304687 3.242187 1.949219 5.042968 1.949219 2.042969 0 4.078126-.832032 5.5625-2.464844l19.808594-21.824219 19.808594 21.824219c1.480469 1.632812 3.515625 2.464844 5.5625 2.464844 1.796875 0 3.605469-.644532 5.042969-1.949219 3.070312-2.789063 3.300781-7.535156.511719-10.605469zm-71.175781-87.558594h17.476562c9.636719 0 17.476563 7.839844 17.476563 17.476563s-7.839844 17.476562-17.476563 17.476562h-17.476562zm0 0" fill="#ff1d25"/><g fill="#ffae47"><path d="m405.046875 340.085938h-265.144531c-4.144532 0-7.507813-3.363282-7.507813-7.507813 0-4.148437 3.363281-7.507813 7.507813-7.507813h265.140625c4.148437 0 7.507812 3.359376 7.507812 7.507813.003907 4.144531-3.359375 7.507813-7.503906 7.507813zm0 0"/><path d="m405.046875 297.117188h-265.144531c-4.144532 0-7.507813-3.363282-7.507813-7.507813 0-4.148437 3.363281-7.507813 7.507813-7.507813h265.140625c4.148437 0 7.507812 3.359376 7.507812 7.507813.003907 4.144531-3.359375 7.507813-7.503906 7.507813zm0 0"/><path d="m405.046875 254.148438h-265.144531c-4.144532 0-7.507813-3.359376-7.507813-7.507813 0-4.144531 3.363281-7.507813 7.507813-7.507813h265.140625c4.148437 0 7.507812 3.363282 7.507812 7.507813.003907 4.148437-3.359375 7.507813-7.503906 7.507813zm0 0"/><path d="m298.546875 383.054688h-158.644531c-4.144532 0-7.507813-3.363282-7.507813-7.507813 0-4.148437 3.363281-7.507813 7.507813-7.507813h158.644531c4.148437 0 7.507813 3.359376 7.507813 7.507813 0 4.144531-3.359376 7.507813-7.507813 7.507813zm0 0"/></g><path d="m343.722656 451.585938c0-3.632813.335938-7.183594.953125-10.636719h-337.167969c-4.144531 0-7.507812 3.363281-7.507812 7.507812 0 34.730469 28.257812 62.988281 62.988281 62.988281h333.058594c-29.539063-3.957031-52.324219-29.238281-52.324219-59.859374zm0 0" fill="#ffdb8a"/><path d="m62.988281 511.445312h333.058594c-20.8125-2.785156-38.257813-16.167968-46.761719-34.539062h-342.464844c10.410157 20.472656 31.671876 34.539062 56.167969 34.539062zm0 0" fill="#eac375"/></svg>